<mxfile host="app.diagrams.net" modified="2024-06-03T02:27:54.893Z" agent="Mozilla/5.0 (Windows NT 10.0; Win64; x64) AppleWebKit/537.36 (KHTML, like Gecko) Chrome/125.0.0.0 Safari/537.36" etag="aNuP8pqVaRTlDFF9os8c" version="24.4.13" type="device">
  <diagram name="Page-1" id="P0jCeTdEBxxe97QMBK2Q">
    <mxGraphModel dx="1050" dy="558" grid="1" gridSize="10" guides="1" tooltips="1" connect="1" arrows="1" fold="1" page="1" pageScale="1" pageWidth="850" pageHeight="1100" math="0" shadow="0">
      <root>
        <mxCell id="0" />
        <mxCell id="1" parent="0" />
        <mxCell id="cyreF_LWNamc2zbXXMQV-3" value="" style="shape=actor;whiteSpace=wrap;html=1;" vertex="1" parent="1">
          <mxGeometry x="30" y="260" width="90" height="110" as="geometry" />
        </mxCell>
        <mxCell id="cyreF_LWNamc2zbXXMQV-15" value="" style="group" vertex="1" connectable="0" parent="1">
          <mxGeometry x="610" y="240" width="220" height="200" as="geometry" />
        </mxCell>
        <mxCell id="cyreF_LWNamc2zbXXMQV-14" value="" style="rounded=1;whiteSpace=wrap;html=1;" vertex="1" parent="cyreF_LWNamc2zbXXMQV-15">
          <mxGeometry width="220" height="200" as="geometry" />
        </mxCell>
        <mxCell id="cyreF_LWNamc2zbXXMQV-13" value="&lt;font style=&quot;font-size: 16px;&quot;&gt;Model&lt;/font&gt;" style="shape=cylinder3;whiteSpace=wrap;html=1;boundedLbl=1;backgroundOutline=1;size=15;" vertex="1" parent="cyreF_LWNamc2zbXXMQV-15">
          <mxGeometry x="60" y="110" width="100" height="80" as="geometry" />
        </mxCell>
        <mxCell id="cyreF_LWNamc2zbXXMQV-2" value="&lt;font style=&quot;font-size: 16px;&quot;&gt;DATABASE&lt;/font&gt;" style="shape=datastore;whiteSpace=wrap;html=1;" vertex="1" parent="cyreF_LWNamc2zbXXMQV-15">
          <mxGeometry x="55" y="10" width="110" height="80" as="geometry" />
        </mxCell>
        <mxCell id="cyreF_LWNamc2zbXXMQV-21" value="" style="group" vertex="1" connectable="0" parent="1">
          <mxGeometry x="260" y="130" width="220" height="390" as="geometry" />
        </mxCell>
        <mxCell id="cyreF_LWNamc2zbXXMQV-5" value="" style="verticalLabelPosition=bottom;html=1;verticalAlign=top;align=center;strokeColor=none;fillColor=#1A1A1A;shape=mxgraph.azure.computer;pointerEvents=1;strokeWidth=0;" vertex="1" parent="cyreF_LWNamc2zbXXMQV-21">
          <mxGeometry x="30" y="-40" width="170" height="130" as="geometry" />
        </mxCell>
        <mxCell id="cyreF_LWNamc2zbXXMQV-17" value="" style="group" vertex="1" connectable="0" parent="cyreF_LWNamc2zbXXMQV-21">
          <mxGeometry y="190" width="220" height="200" as="geometry" />
        </mxCell>
        <mxCell id="cyreF_LWNamc2zbXXMQV-7" value="" style="rounded=1;whiteSpace=wrap;html=1;" vertex="1" parent="cyreF_LWNamc2zbXXMQV-17">
          <mxGeometry width="220" height="200" as="geometry" />
        </mxCell>
        <mxCell id="cyreF_LWNamc2zbXXMQV-16" value="" style="group" vertex="1" connectable="0" parent="cyreF_LWNamc2zbXXMQV-17">
          <mxGeometry x="15" y="10" width="190" height="170" as="geometry" />
        </mxCell>
        <mxCell id="cyreF_LWNamc2zbXXMQV-8" value="&lt;font style=&quot;font-size: 18px;&quot;&gt;Controller&lt;/font&gt;" style="strokeWidth=2;html=1;shape=mxgraph.flowchart.terminator;whiteSpace=wrap;" vertex="1" parent="cyreF_LWNamc2zbXXMQV-16">
          <mxGeometry width="190" height="50" as="geometry" />
        </mxCell>
        <mxCell id="cyreF_LWNamc2zbXXMQV-9" value="&lt;font style=&quot;font-size: 16px;&quot;&gt;Middleware&lt;/font&gt;" style="strokeWidth=2;html=1;shape=mxgraph.flowchart.terminator;whiteSpace=wrap;" vertex="1" parent="cyreF_LWNamc2zbXXMQV-16">
          <mxGeometry y="60" width="190" height="50" as="geometry" />
        </mxCell>
        <mxCell id="cyreF_LWNamc2zbXXMQV-10" value="&lt;font style=&quot;font-size: 16px;&quot;&gt;Services&lt;/font&gt;" style="strokeWidth=2;html=1;shape=mxgraph.flowchart.terminator;whiteSpace=wrap;" vertex="1" parent="cyreF_LWNamc2zbXXMQV-16">
          <mxGeometry y="120" width="190" height="50" as="geometry" />
        </mxCell>
        <mxCell id="cyreF_LWNamc2zbXXMQV-25" value="" style="endArrow=classic;html=1;rounded=0;entryX=0.155;entryY=1;entryDx=0;entryDy=0;entryPerimeter=0;exitX=0.25;exitY=0;exitDx=0;exitDy=0;" edge="1" parent="cyreF_LWNamc2zbXXMQV-21" source="cyreF_LWNamc2zbXXMQV-7" target="cyreF_LWNamc2zbXXMQV-5">
          <mxGeometry width="50" height="50" relative="1" as="geometry">
            <mxPoint x="140" y="210" as="sourcePoint" />
            <mxPoint x="190" y="160" as="targetPoint" />
          </mxGeometry>
        </mxCell>
        <mxCell id="cyreF_LWNamc2zbXXMQV-26" value="" style="endArrow=classic;html=1;rounded=0;exitX=0.805;exitY=1;exitDx=0;exitDy=0;exitPerimeter=0;entryX=0.75;entryY=0;entryDx=0;entryDy=0;" edge="1" parent="cyreF_LWNamc2zbXXMQV-21" source="cyreF_LWNamc2zbXXMQV-5" target="cyreF_LWNamc2zbXXMQV-7">
          <mxGeometry width="50" height="50" relative="1" as="geometry">
            <mxPoint x="140" y="210" as="sourcePoint" />
            <mxPoint x="190" y="160" as="targetPoint" />
          </mxGeometry>
        </mxCell>
        <mxCell id="cyreF_LWNamc2zbXXMQV-22" value="" style="shape=flexArrow;endArrow=classic;startArrow=classic;html=1;rounded=0;" edge="1" parent="1">
          <mxGeometry width="100" height="100" relative="1" as="geometry">
            <mxPoint x="130" y="320" as="sourcePoint" />
            <mxPoint x="230" y="320" as="targetPoint" />
          </mxGeometry>
        </mxCell>
        <mxCell id="cyreF_LWNamc2zbXXMQV-23" value="" style="shape=flexArrow;endArrow=classic;startArrow=classic;html=1;rounded=0;" edge="1" parent="1">
          <mxGeometry width="100" height="100" relative="1" as="geometry">
            <mxPoint x="500" y="314.5" as="sourcePoint" />
            <mxPoint x="600" y="314.5" as="targetPoint" />
          </mxGeometry>
        </mxCell>
        <mxCell id="cyreF_LWNamc2zbXXMQV-27" value="&lt;font style=&quot;font-size: 16px;&quot;&gt;USER&lt;/font&gt;" style="text;html=1;align=center;verticalAlign=middle;whiteSpace=wrap;rounded=0;" vertex="1" parent="1">
          <mxGeometry x="45" y="370" width="60" height="30" as="geometry" />
        </mxCell>
        <mxCell id="cyreF_LWNamc2zbXXMQV-28" value="&lt;font style=&quot;font-size: 16px;&quot;&gt;PRESENTATION LAYER&lt;/font&gt;" style="text;html=1;align=center;verticalAlign=middle;whiteSpace=wrap;rounded=0;" vertex="1" parent="1">
          <mxGeometry x="265" y="50" width="210" height="30" as="geometry" />
        </mxCell>
        <mxCell id="cyreF_LWNamc2zbXXMQV-29" value="&lt;font style=&quot;font-size: 16px;&quot;&gt;LOGICAL LAYER&lt;/font&gt;" style="text;html=1;align=center;verticalAlign=middle;whiteSpace=wrap;rounded=0;" vertex="1" parent="1">
          <mxGeometry x="260" y="530" width="210" height="30" as="geometry" />
        </mxCell>
        <mxCell id="cyreF_LWNamc2zbXXMQV-30" value="&lt;font style=&quot;font-size: 16px;&quot;&gt;DATA LAYER&lt;/font&gt;" style="text;html=1;align=center;verticalAlign=middle;whiteSpace=wrap;rounded=0;" vertex="1" parent="1">
          <mxGeometry x="610" y="440" width="210" height="30" as="geometry" />
        </mxCell>
      </root>
    </mxGraphModel>
  </diagram>
</mxfile>
